<?xml version="1.0" encoding="UTF-8" standalone="no"?>
<svg
   xmlns:dc="http://purl.org/dc/elements/1.1/"
   xmlns:cc="http://creativecommons.org/ns#"
   xmlns:rdf="http://www.w3.org/1999/02/22-rdf-syntax-ns#"
   xmlns:svg="http://www.w3.org/2000/svg"
   xmlns="http://www.w3.org/2000/svg"
   viewBox="0 0 601.47998 75.253334"
   height="75.253334"
   width="601.47998"
   xml:space="preserve"
   id="svg2"
   version="1.1"><metadata
     id="metadata8"><rdf:RDF><cc:Work
         rdf:about=""><dc:format>image/svg+xml</dc:format><dc:type
           rdf:resource="http://purl.org/dc/dcmitype/StillImage" /></cc:Work></rdf:RDF></metadata><defs
     id="defs6" /><g
     transform="matrix(1.3333333,0,0,-1.3333333,0,75.253333)"
     id="g10"><g
       transform="translate(72,-15.555)"
       id="g12"><g
         transform="translate(-29.281,43.778)"
         id="g14"><g
           id="g16"><g
             id="g18"><g
               id="g20"><g
                 id="g22"><path
                   id="path24"
                   style="fill:#ffb3b3;fill-opacity:1;fill-rule:nonzero;stroke:#000000;stroke-width:0.3985;stroke-linecap:butt;stroke-linejoin:miter;stroke-miterlimit:10;stroke-dasharray:none;stroke-opacity:1"
                   d="m 38.53511,14.17339 h -77.07022 c -2.20094,0 -3.98511,-1.78417 -3.98511,-3.98511 v -20.37656 c 0,-2.20094 1.78417,-3.98511 3.98511,-3.98511 h 77.07022 c 2.20094,0 3.98511,1.78417 3.98511,3.98511 v 20.37656 c 0,2.20094 -1.78417,3.98511 -3.98511,3.98511 z" /></g><g
                 id="g26"><g
                   transform="scale(-1)"
                   id="g28"><g
                     id="g30" /><g
                     transform="rotate(180,-14.6405,21.889)"
                     id="g32"><g
                       id="g34" /><g
                       transform="translate(-16.937,-1.161)"
                       id="g36"><text
                         id="text40"
                         style="font-variant:normal;font-weight:normal;font-size:9.96259975px;font-family:Cookie;-inkscape-font-specification:Cookie-Regular;writing-mode:lr-tb;fill:#000000;fill-opacity:1;fill-rule:nonzero;stroke:none"
                         transform="matrix(1,0,0,-1,-29.281,43.778)"><tspan
                           id="tspan38"
                           y="0"
                           x="0 3.5865359 6.1269989 9.0460405 12.632577 16.448252 18.988716 22.804392 24.806873 26.550329 30.176716">preparation</tspan></text>
</g><g
                       transform="translate(-29.281,43.778)"
                       id="g42" /></g></g></g></g><g
               id="g44"><g
                 id="g46"><path
                   id="path48"
                   style="fill:#b3b3ff;fill-opacity:1;fill-rule:nonzero;stroke:#000000;stroke-width:0.3985;stroke-linecap:butt;stroke-linejoin:miter;stroke-miterlimit:10;stroke-dasharray:none;stroke-opacity:1"
                   d="m 74.53563,-14.17339 10.31268,28.34678 h 84.39887 L 158.9345,-14.17339 Z" /></g><g
                 id="g50"><g
                   transform="scale(-1)"
                   id="g52"><g
                     id="g54" /><g
                     transform="rotate(180,-14.6405,21.889)"
                     id="g56"><g
                       id="g58" /><g
                       transform="translate(108.651,-2.964)"
                       id="g60"><text
                         id="text64"
                         style="font-variant:normal;font-weight:normal;font-size:9.96259975px;font-family:Cookie;-inkscape-font-specification:Cookie-Regular;writing-mode:lr-tb;fill:#000000;fill-opacity:1;fill-rule:nonzero;stroke:none"
                         transform="matrix(1,0,0,-1,-29.281,43.778)"><tspan
                           id="tspan62"
                           y="0"
                           x="0 2.9190419 6.405952 10.032338 11.775793 15.412142 17.414625 19.158079 22.784466">evolution</tspan></text>
</g><g
                       transform="translate(-29.281,43.778)"
                       id="g66" /></g></g></g></g><g
               id="g68"><g
                 id="g70"><path
                   id="path72"
                   style="fill:#b3ffb3;fill-opacity:1;fill-rule:nonzero;stroke:#000000;stroke-width:0.3985;stroke-linecap:butt;stroke-linejoin:miter;stroke-miterlimit:10;stroke-dasharray:none;stroke-opacity:1"
                   d="M 286.2205,0 243.7828,28.02336 201.34512,0 243.7828,-28.02336 Z" /></g><g
                 id="g74"><g
                   transform="scale(-1)"
                   id="g76"><g
                     id="g78" /><g
                     transform="rotate(180,-14.6405,21.889)"
                     id="g80"><g
                       id="g82" /><g
                       transform="translate(225.123,-2.705)"
                       id="g84"><text
                         id="text88"
                         style="font-variant:normal;font-weight:normal;font-size:9.96259975px;font-family:Cookie;-inkscape-font-specification:Cookie-Regular;writing-mode:lr-tb;fill:#000000;fill-opacity:1;fill-rule:nonzero;stroke:none"
                         transform="matrix(1,0,0,-1,-29.281,43.778)"><tspan
                           id="tspan86"
                           y="0"
                           x="0 5.3997293 8.3187714 12.134447 14.206668 17.843016 20.38348 23.302521 28.702251 31.621292 35.317417">measurement</tspan></text>
</g><g
                       transform="translate(-29.281,43.778)"
                       id="g90" /></g></g></g></g><g
               id="g92"><g
                 id="g94"><path
                   id="path96"
                   style="fill:#ffb3b3;fill-opacity:1;fill-rule:nonzero;stroke:#000000;stroke-width:0.3985;stroke-linecap:butt;stroke-linejoin:miter;stroke-miterlimit:10;stroke-dasharray:none;stroke-opacity:1"
                   d="M 404.20934,14.17339 H 327.1391 c -2.20094,0 -3.98511,-1.78417 -3.98511,-3.98511 v -20.37656 c 0,-2.20094 1.78417,-3.98511 3.98511,-3.98511 h 77.07024 c 2.20094,0 3.9851,1.78417 3.9851,3.98511 v 20.37656 c 0,2.20094 -1.78416,3.98511 -3.9851,3.98511 z" /></g><g
                 id="g98"><g
                   transform="scale(-1)"
                   id="g100"><g
                     id="g102" /><g
                     transform="rotate(180,-14.6405,21.889)"
                     id="g104"><g
                       id="g106" /><g
                       transform="translate(344.194,-1.161)"
                       id="g108"><text
                         id="text112"
                         style="font-variant:normal;font-weight:normal;font-size:9.96259975px;font-family:Cookie;-inkscape-font-specification:Cookie-Regular;writing-mode:lr-tb;fill:#000000;fill-opacity:1;fill-rule:nonzero;stroke:none"
                         transform="matrix(1,0,0,-1,-29.281,43.778)"><tspan
                           id="tspan110"
                           y="0"
                           x="0 3.5865359 7.2129226 9.2851429 11.287626 14.146892 17.733427 20.273891 23.900278 26.74958 29.668623 31.740843 33.813065 35.556519 39.252644">post-processing</tspan></text>
</g><g
                       transform="translate(-29.281,43.778)"
                       id="g114" /></g></g></g></g><g
               id="g116"><path
                 id="path118"
                 style="fill:none;stroke:#000000;stroke-width:0.79701;stroke-linecap:butt;stroke-linejoin:miter;stroke-miterlimit:10;stroke-dasharray:none;stroke-opacity:1"
                 d="m 42.71947,0 34.1708,-2e-5" /><g
                 transform="translate(76.89027,-2e-5)"
                 id="g120"><g
                   id="g122"><path
                     id="path124"
                     style="fill:#000000;fill-opacity:1;fill-rule:nonzero;stroke:none"
                     d="M 2.59026,0 -1.55415,2.0722 0,0 -1.55415,-2.0722" /></g></g></g><g
               id="g126"><path
                 id="path128"
                 style="fill:none;stroke:#000000;stroke-width:0.79701;stroke-linecap:butt;stroke-linejoin:miter;stroke-miterlimit:10;stroke-dasharray:none;stroke-opacity:1"
                 d="M 164.30223,-6e-5 198.47151,0" /><g
                 transform="translate(198.47151)"
                 id="g130"><g
                   id="g132"><path
                     id="path134"
                     style="fill:#000000;fill-opacity:1;fill-rule:nonzero;stroke:none"
                     d="M 2.59026,0 -1.55415,2.0722 0,0 -1.55415,-2.0722" /></g></g></g><g
               id="g136"><path
                 id="path138"
                 style="fill:none;stroke:#000000;stroke-width:0.79701;stroke-linecap:butt;stroke-linejoin:miter;stroke-miterlimit:10;stroke-dasharray:none;stroke-opacity:1"
                 d="m 286.50435,0 h 33.86012" /><g
                 transform="translate(320.36447)"
                 id="g140"><g
                   id="g142"><path
                     id="path144"
                     style="fill:#000000;fill-opacity:1;fill-rule:nonzero;stroke:none"
                     d="M 2.59026,0 -1.55415,2.0722 0,0 -1.55415,-2.0722" /></g></g></g></g></g></g></g></g></svg>