<?xml version="1.0" encoding="UTF-8"?><svg id="Camada_1" xmlns="http://www.w3.org/2000/svg" viewBox="0 0 1709.38 1888.41"><defs><style>.cls-1{fill:#f4f8ff;}</style></defs><g><path class="cls-1" d="M430.8,1677.7h-15.77c-.55,0-1-.45-1-1v-18.78c0-.77-.83-1.25-1.5-.87l-37.55,21.46c-.15,.09-.32,.13-.5,.13h-6.95c-12.84,0-23.13-1.25-30.86-3.74-7.73-2.49-13.31-6.45-16.74-11.88-3.43-5.42-5.14-12.56-5.14-21.41v-51.37c0-.55,.45-1,1-1h15.77c.55,0,1,.45,1,1v50.8c0,8.6,2.71,14.68,8.14,18.23,5.42,3.55,14.56,5.33,27.4,5.33h5.08c.17,0,.35-.05,.5-.13l39.85-22.77c.31-.18,.5-.51,.5-.87v-50.6c0-.55,.45-1,1-1h15.77c.55,0,1,.45,1,1v86.46c0,.55-.45,1-1,1Z"/><path class="cls-1" d="M971.04,1677.7h-15.77c-.55,0-1-.45-1-1v-18.78c0-.77-.83-1.25-1.5-.87l-37.55,21.46c-.15,.09-.32,.13-.5,.13h-6.95c-12.84,0-23.13-1.25-30.86-3.74-7.73-2.49-13.31-6.45-16.74-11.88-3.43-5.42-5.14-12.56-5.14-21.41v-51.37c0-.55,.45-1,1-1h15.77c.55,0,1,.45,1,1v50.8c0,8.6,2.71,14.68,8.14,18.23,5.42,3.55,14.56,5.33,27.4,5.33h5.08c.17,0,.35-.05,.5-.13l39.85-22.77c.31-.18,.5-.51,.5-.87v-50.6c0-.55,.45-1,1-1h15.77c.55,0,1,.45,1,1v86.46c0,.55-.45,1-1,1Z"/><path class="cls-1" d="M593.18,1589.24h15.77c.55,0,1,.45,1,1v18.6c0,.77,.83,1.25,1.49,.87l37.55-21.28c.15-.09,.32-.13,.49-.13h6.95c18.95,0,32.48,2.84,40.58,8.51,8.1,5.67,12.16,15.18,12.16,28.52v51.37c0,.55-.45,1-1,1h-15.77c-.55,0-1-.45-1-1v-50.8c0-8.6-2.71-14.68-8.13-18.23s-14.62-5.33-27.59-5.33h-5.08c-.17,0-.34,.05-.49,.13l-39.66,22.58c-.31,.18-.51,.51-.51,.87v50.78c0,.55-.45,1-1,1h-15.77c-.55,0-1-.45-1-1v-86.46c0-.55,.45-1,1-1Z"/><path class="cls-1" d="M744.64,1602.9h-26.48c-.55,0-1-.45-1-1v-11.65c0-.55,.45-1,1-1h26.48c.55,0,1-.45,1-1v-18.9c0-.55,.45-1,1-1h15.77c.55,0,1,.45,1,1v18.9c0,.55,.45,1,1,1h68.75c.55,0,1,.45,1,1v11.65c0,.55-.45,1-1,1h-68.75c-.55,0-1,.45-1,1v39.4c0,6.24,2.12,11.22,6.36,14.96,4.24,3.74,10.16,5.61,17.77,5.61h45.62c.55,0,1,.45,1,1v11.84c0,.55-.45,1-1,1h-46.37c-13.34,0-23.54-2.9-30.58-8.7-7.05-5.8-10.57-14.18-10.57-25.15v-39.96c0-.55-.45-1-1-1Z"/><path class="cls-1" d="M1065.6,1663.86h43.31c.55,0,1,.45,1,1v11.84c0,.55-.45,1-1,1h-115c-.55,0-1-.45-1-1v-11.84c0-.55,.45-1,1-1h51.92c.55,0,1-.45,1-1v-79.68c0-.55-.45-1-1-1h-31.8c-.55,0-1-.45-1-1v-11.84c0-.55,.45-1,1-1h49.57c.55,0,1,.45,1,1v93.52c0,.55,.45,1,1,1Z"/><path class="cls-1" d="M1117.9,1633.38c0-30.67,21.85-46.01,52.09-46.01h26.9c30.24,0,52.09,15.34,52.09,46.01s-21.85,46.19-52.09,46.19h-26.9c-30.24,0-52.09-15.52-52.09-46.19Zm112.94,0c0-21.57-15.8-32.35-33.95-32.35h-26.9c-18.15,0-33.95,10.78-33.95,32.35s15.8,32.35,33.95,32.35h26.9c18.15,0,33.95-10.78,33.95-32.35Z"/><path class="cls-1" d="M1261.88,1633.38c0-30.67,21.85-46.01,52.09-46.01h26.9c30.24,0,52.09,15.34,52.09,46.01s-21.85,46.19-52.09,46.19h-26.9c-30.24,0-52.09-15.52-52.09-46.19Zm112.94,0c0-21.57-15.8-32.35-33.95-32.35h-26.9c-18.15,0-33.95,10.78-33.95,32.35s15.8,32.35,33.95,32.35h26.9c18.15,0,33.95-10.78,33.95-32.35Z"/><path class="cls-1" d="M238.45,1589.19c-19.58,0-34.72,3.83-45.45,11.5-10.72,7.67-16.08,18.73-16.08,33.2s5.08,25.78,16.08,33.1c16.46,10.96,40.79,11.61,43.6,11.64,.18,0,.35-.04,.5-.13l25.63-14.64c.31-.18,.5-.51,.5-.87v-12.47c0-.77-.83-1.25-1.5-.87l-25.94,14.82c-.16,.09-.33,.13-.51,.13-2.33-.04-19.11-.57-29.02-8.09-7.33-5.56-11.22-12.97-11.22-22.82s3.74-17.45,11.22-22.82c7.48-5.36,18.2-8.04,32.17-8.04l36.7,.05c.55,0,1,.45,1,1v106.6c0,.55,.45,1,1,1h15.77c.55,0,1-.45,1-1v-120.25c0-.55-.45-1-1-1l-54.47-.05Z"/><path class="cls-1" d="M1516.56,1599.81c-10.6-7.67-25.75-11.5-45.45-11.5h-3.01c-.17,0-.34,.04-.49,.13l-25.63,14.52c-.31,.18-.51,.51-.51,.87v12.44c0,.77,.83,1.25,1.49,.87l25.76-14.67c.15-.09,.32-.13,.49-.13h1.89c13.96,0,24.69,2.65,32.17,7.95,7.48,5.3,11.22,12.94,11.22,22.91s-3.77,17.42-11.31,22.72c-7.54,5.3-18.23,7.95-32.07,7.95h-41.55c-.55,0-1-.45-1-1v-17.61h0v-55.01c0-.55-.45-1-1-1h-15.77c-.55,0-1,.45-1,1v120.25c0,.55,.45,1,1,1h15.77c.55,0,1-.45,1-1v-31.79c0-.55,.45-1,1-1h41.55c19.7,0,34.85-3.86,45.45-11.59,10.6-7.73,15.9-18.76,15.9-33.1s-5.3-25.53-15.9-33.2Z"/><path class="cls-1" d="M559.14,1597.66c-8.11-5.61-21.63-8.42-40.58-8.42h-63.24c-.55,0-1,.45-1,1v11.47c0,.55,.45,1,1,1h62.68c11.59,0,20.26,1.59,26,4.77,5.45,3.02,8.54,7.99,9.26,14.9,.06,.58-.41,1.09-1,1.09h-65.02c-12.09,0-21.38,2.4-27.87,7.2-6.48,4.8-9.72,11.63-9.72,20.48s3.24,15.49,9.72,20.29c6.48,4.8,15.77,7.2,27.87,7.2h27.14c.17,0,.34-.04,.48-.12l25.25-13.96c.32-.18,.52-.51,.52-.88v-11.42c0-.76-.82-1.24-1.48-.88l-26.9,14.78c-.15,.08-.31,.12-.48,.12h-22.47c-14.34,0-21.51-5.05-21.51-15.15s7.17-15.34,21.51-15.34h63.24c.55,0,1,.45,1,1v39.89c0,.55,.45,1,1,1h15.77c.55,0,1-.45,1-1v-51.18c0-12.97-4.05-22.26-12.16-27.87Z"/></g><g><g><path class="cls-1" d="M777.69,648.03l33.82-58.58c2.43-4.21,2.43-9.39,0-13.6l-226.39-392.13c-3.76-6.5-12.07-8.73-18.58-4.98l-101.46,58.58c-6.5,3.76-8.73,12.07-4.98,18.58l226.39,392.13c2.43,4.21,6.92,6.8,11.78,6.8h67.64c4.86,0,9.35-2.59,11.78-6.8Z"/><path class="cls-1" d="M1054.29,729.62l-33.82,58.57c-2.43,4.21-2.43,9.39,0,13.6l33.82,58.58c2.43,4.21,6.92,6.8,11.78,6.8h452.79c7.51,0,13.6-6.09,13.6-13.6v-117.15c0-7.51-6.09-13.6-13.6-13.6h-452.79c-4.86,0-9.35,2.59-11.78,6.8Z"/><path class="cls-1" d="M765.91,935.17h-67.64c-4.86,0-9.35,2.59-11.78,6.8l-226.39,392.13c-3.76,6.5-1.53,14.82,4.98,18.58l101.46,58.58c6.5,3.76,14.82,1.53,18.58-4.98l226.39-392.13c2.43-4.21,2.43-9.39,0-13.6l-33.82-58.58c-2.43-4.21-6.92-6.8-11.78-6.8Z"/></g><path class="cls-1" d="M1249.28,1334.1l-307.32-532.3c-2.43-4.21-2.43-9.39,0-13.6L1249.28,255.9c3.76-6.5,1.53-14.82-4.98-18.58l-101.46-58.58c-6.5-3.76-14.82-1.53-18.58,4.98l-307.32,532.3c-2.43,4.21-6.92,6.8-11.78,6.8H190.52c-7.51,0-13.6,6.09-13.6,13.6v117.15c0,7.51,6.09,13.6,13.6,13.6H805.17c4.86,0,9.35,2.59,11.78,6.8l307.32,532.3c3.76,6.5,12.07,8.73,18.58,4.98l101.46-58.58c6.5-3.76,8.73-12.07,4.98-18.58Z"/></g></svg>